<svg width="42" height="42" viewBox="0 0 42 42" fill="none" xmlns="http://www.w3.org/2000/svg">
<path d="M13.631 9.45612C14.5767 9.43856 15.521 9.53552 16.4434 9.74488C17.2201 9.91444 17.9574 10.23 18.6163 10.6747C19.2248 11.1169 19.7063 11.7114 20.0124 12.3985C20.3642 13.2435 20.534 14.1531 20.5105 15.0681C20.5505 16.0727 20.2939 17.0669 19.7728 17.9267C19.2245 18.7388 18.4667 19.3874 17.5797 19.8036C18.7834 20.1282 19.8319 20.8715 20.5365 21.9C21.213 22.9898 21.553 24.2548 21.514 25.5369C21.5363 26.559 21.3249 27.5728 20.896 28.5009C20.4996 29.3106 19.9191 30.0162 19.201 30.5612C18.4618 31.1003 17.6299 31.4991 16.7466 31.7379C15.8307 31.9913 14.8845 32.1185 13.9342 32.1161H3.5V9.45612H13.631ZM13.0289 18.6212C13.772 18.6518 14.5034 18.4294 15.1036 17.9903C15.3911 17.7344 15.6147 17.4148 15.7565 17.0571C15.8984 16.6993 15.9547 16.3134 15.9208 15.93C15.94 15.4823 15.8509 15.0365 15.6609 14.6306C15.4998 14.3074 15.2492 14.0373 14.939 13.8524C14.6248 13.6489 14.2719 13.5127 13.9024 13.4525C13.5015 13.3748 13.0936 13.3395 12.6853 13.3471H8.22691V18.6414H13.0289V18.6212ZM13.2888 28.2685C13.7382 28.2746 14.1866 28.2261 14.6243 28.1241C15.0243 28.0358 15.4036 27.8716 15.7418 27.6405C16.073 27.4094 16.3407 27.0986 16.5199 26.7366C16.7278 26.2752 16.8233 25.771 16.7986 25.2654C16.8437 24.8048 16.7826 24.3399 16.6202 23.9064C16.4578 23.473 16.1983 23.0825 15.8616 22.7648C15.1479 22.2392 14.2734 21.9788 13.3884 22.0285H8.22691V28.2685H13.2888Z" fill="#D7D9DF"/>
<path d="M28.2463 28.1847C28.6173 28.5286 29.0543 28.7935 29.5309 28.9632C30.0074 29.133 30.5135 29.2041 31.0183 29.1723C31.8187 29.1925 32.6035 28.949 33.2519 28.4793C33.7793 28.1363 34.1787 27.6288 34.3881 27.0355H38.1578C37.7561 28.7245 36.7753 30.2192 35.3857 31.26C34.0527 32.1448 32.4774 32.5928 30.8783 32.542C29.737 32.557 28.6043 32.3424 27.5475 31.9111C26.5915 31.5124 25.7342 30.9098 25.0353 30.1454C24.3391 29.3443 23.8042 28.4163 23.4602 27.4123C23.074 26.2901 22.8849 25.1094 22.9014 23.9227C22.8944 22.7559 23.0898 21.5967 23.4789 20.4966C24.0018 18.9491 25.0014 17.6069 26.3343 16.6627C27.6673 15.7186 29.2651 15.221 30.8985 15.2413C32.1044 15.2161 33.2969 15.4983 34.3636 16.0614C35.3278 16.5901 36.1595 17.3305 36.7963 18.227C37.4477 19.1677 37.9146 20.2235 38.1722 21.3384C38.4548 22.5355 38.5555 23.7683 38.4711 24.9954H27.2429C27.1519 26.1483 27.5116 27.2916 28.2463 28.1847ZM33.1724 19.5668C32.8582 19.2526 32.4803 19.0093 32.0642 18.8534C31.648 18.6975 31.2033 18.6326 30.7599 18.663C30.1717 18.6406 29.5877 18.7709 29.0649 19.0413C28.6504 19.2695 28.2845 19.5765 27.9879 19.9451C27.7249 20.2907 27.5291 20.6825 27.4103 21.1001C27.3034 21.4485 27.2365 21.8079 27.2111 22.1714H34.1658C34.1052 21.2238 33.76 20.3165 33.1753 19.5683L33.1724 19.5668Z" fill="#D7D9DF"/>
<path d="M35.0291 10.9692H26.3145V13.197H35.0291V10.9692Z" fill="#D7D9DF"/>
</svg>
