<svg width="42" height="42" viewBox="0 0 42 42" fill="none" xmlns="http://www.w3.org/2000/svg">
<path fill-rule="evenodd" clip-rule="evenodd" d="M21 3.93164C11.3313 3.93164 3.50001 11.7629 3.50001 21.4316C3.50001 29.1754 8.50938 35.716 15.4656 38.0348C16.3406 38.1879 16.6688 37.6629 16.6688 37.2035C16.6688 36.7879 16.6469 35.4098 16.6469 33.9441C12.25 34.7535 11.1125 32.8723 10.7625 31.8879C10.5656 31.3848 9.71251 29.8316 8.96876 29.416C8.35626 29.0879 7.48126 28.2785 8.94688 28.2566C10.325 28.2348 11.3094 29.5254 11.6375 30.0504C13.2125 32.6973 15.7281 31.9535 16.7344 31.4941C16.8875 30.3566 17.3469 29.591 17.85 29.1535C13.9563 28.716 9.88751 27.2066 9.88751 20.5129C9.88751 18.6098 10.5656 17.0348 11.6813 15.8098C11.5063 15.3723 10.8938 13.5785 11.8563 11.1723C11.8563 11.1723 13.3219 10.7129 16.6688 12.966C18.0688 12.5723 19.5563 12.3754 21.0438 12.3754C22.5313 12.3754 24.0188 12.5723 25.4188 12.966C28.7656 10.691 30.2313 11.1723 30.2313 11.1723C31.1938 13.5785 30.5813 15.3723 30.4063 15.8098C31.5219 17.0348 32.2 18.5879 32.2 20.5129C32.2 27.2285 28.1094 28.716 24.2156 29.1535C24.85 29.7004 25.3969 30.7504 25.3969 32.391C25.3969 34.7316 25.375 36.6129 25.375 37.2035C25.375 37.6629 25.7031 38.2098 26.5781 38.0348C30.0522 36.862 33.071 34.6292 35.2097 31.6508C37.3483 28.6724 38.4991 25.0983 38.5 21.4316C38.5 11.7629 30.6688 3.93164 21 3.93164Z" fill="#D7D9DF"/>
</svg>
