<svg width="42" height="42" viewBox="0 0 42 42" fill="none" xmlns="http://www.w3.org/2000/svg">
<path d="M36.75 7.56618V34.4338C36.75 35.0481 36.506 35.6372 36.0716 36.0716C35.6372 36.506 35.0481 36.75 34.4338 36.75H7.56618C6.95189 36.75 6.36276 36.506 5.92839 36.0716C5.49403 35.6372 5.25 35.0481 5.25 34.4338V7.56618C5.25 6.95189 5.49403 6.36276 5.92839 5.92839C6.36276 5.49403 6.95189 5.25 7.56618 5.25H34.4338C35.0481 5.25 35.6372 5.49403 36.0716 5.92839C36.506 6.36276 36.75 6.95189 36.75 7.56618ZM14.5147 17.2941H9.88235V32.1176H14.5147V17.2941ZM14.9316 12.1985C14.9341 11.8481 14.8675 11.5007 14.7356 11.176C14.6038 10.8514 14.4093 10.5558 14.1632 10.3064C13.9172 10.0569 13.6244 9.85828 13.3016 9.72195C12.9788 9.58561 12.6323 9.51419 12.2819 9.51176H12.1985C11.486 9.51176 10.8026 9.79483 10.2987 10.2987C9.79483 10.8026 9.51176 11.486 9.51176 12.1985C9.51176 12.9111 9.79483 13.5945 10.2987 14.0984C10.8026 14.6022 11.486 14.8853 12.1985 14.8853C12.549 14.8939 12.8976 14.8334 13.2247 14.7072C13.5517 14.581 13.8507 14.3916 14.1045 14.1499C14.3583 13.9081 14.562 13.6187 14.7039 13.2982C14.8458 12.9777 14.9232 12.6323 14.9316 12.2819V12.1985ZM32.1176 23.1124C32.1176 18.656 29.2826 16.9235 26.4662 16.9235C25.544 16.8774 24.6258 17.0738 23.8033 17.4932C22.9807 17.9126 22.2825 18.5403 21.7782 19.3138H21.6485V17.2941H17.2941V32.1176H21.9265V24.2334C21.8595 23.4259 22.1139 22.6246 22.6343 22.0036C23.1547 21.3825 23.8991 20.9919 24.7059 20.9166H24.8819C26.355 20.9166 27.4482 21.8431 27.4482 24.1778V32.1176H32.0806L32.1176 23.1124Z" fill="#D7D9DF"/>
</svg>
